<svg height="524.40942" width="744.09448" xmlns="http://www.w3.org/2000/svg" xmlns:xlink="http://www.w3.org/1999/xlink"><linearGradient id="a"><stop offset="0" stop-color="#fff"/><stop offset="1" stop-color="#d5d5ff" stop-opacity="0"/></linearGradient><linearGradient id="b" gradientTransform="matrix(1.1405059 0 0 1 -4.013201 523.95938)" gradientUnits="userSpaceOnUse" x1="97.1875" x2="28.5625" xlink:href="#a" y1="283.40622" y2="489.5"/><linearGradient id="c" gradientUnits="userSpaceOnUse" x1="386.67188" x2="386.67188" xlink:href="#a" y1="759.42198" y2="1013.45938"/><linearGradient id="d" gradientTransform="matrix(1.2630555 0 0 1 -189.77812 523.95938)" gradientUnits="userSpaceOnUse" x1="590.875" x2="721.4375" xlink:href="#a" y1="242.49995" y2="489.5"/><g fill-rule="evenodd" transform="translate(0 -527.9514)"><rect fill="#d5d5ff" height="464.28571" opacity=".683721" rx="50.722446" width="692.85712" x="28.571428" y="551.19897"/><path d="m662.94224 766.45938c-2.4106.002-4.7918.0571-7.18363.15625-120.41524 4.99035-251.53149 136.44116-264.13648 246.84377h265.75477c35.49215 0 64.0606-22.61852 64.0606-50.71877v-187.75c-19.67367-5.52437-39.36393-8.54467-58.49526-8.53125z" fill="url(#d)" opacity=".683721"/><path d="m387.0625 833.95938c-6.23297.0401-12.4077.43902-18.5 1.21875-84.86461 10.86146-184.82205 92.70876-209.21875 178.28127h454.65625c-.70754-3.784-1.55002-7.4836-2.5625-11.125-24.67992-88.76275-130.8804-168.97631-224.375-168.37502z" fill="url(#c)" opacity=".683721"/><path d="m87.548042 807.36563c-20.950314.0108-40.638537 3.541-58.985542 9.625v145.75c0 28.10025 25.79655 50.71877 57.845036 50.71877h212.739994c-13.32578-82.54934-67.6722-173.72267-157.6393-198.56252-18.77089-5.18263-36.77931-7.54011-53.960188-7.53125z" fill="url(#b)" opacity=".683721"/><g fill="#fff"><path d="m335.37064 172.51931-64.70325-73.551731 15.5684 77.843571 31.34604-92.810514-59.63031 52.404414 96.04929-19.25879-75.19872-25.439157 64.70325 73.551727-15.5684-77.843574-31.34604 92.810514 59.63031-52.40441-96.04929 19.25879z" opacity=".544186" transform="matrix(.55798622 0 0 .55798622 -34.474294 520.78915)"/><path d="m437.39605 191.71222c95.50503-95.708786 95.61723-110.470702-38.21778-129.694965-125.03898-17.960788-110.75622 93.251645 11.29657 125.816235 130.63876 34.85539 143.47905 27.5716 93.21025-97.945051-46.965-117.267332-136.1364-49.29188-103.31177 72.691241 35.13372 130.56417 47.86182 138.0423 131.42802 31.74991 78.07399-99.306545-25.38018-142.543524-114.60834-53.125-95.50503 95.70878-95.61723 110.4707 38.21778 129.69496 125.03899 17.96079 110.75622-93.25164-11.29657-125.81623-130.63876-34.85539-143.47905-27.5716-93.21025 97.94505 46.965 117.26733 136.13641 49.29188 103.31177-72.69124-35.13372-130.564172-47.86182-138.042296-131.42802-31.74991-78.07399 99.30654 25.38018 142.54352 114.60834 53.125z" opacity=".544186" transform="matrix(.24772148 0 0 .24772148 519.80461 548.43725)"/><path d="m265.67011 203.83404c-71.85097 0 61.71564-35.92368-.50912-71.84917-62.22477-35.925478-26.55228 97.70844-62.47776 35.48368s61.96864 35.48548 61.96864-36.36549c0-71.850969-97.89413 25.85927-61.96864-36.36549 35.92548-62.224764.253 71.40916 62.47776 35.48367 62.22476-35.925484-71.34185-71.849162.50911-71.849162 71.85097 0-61.71564 35.923682.50912 71.849162 62.22477 35.92548 26.55228-97.708437 62.47776-35.483674 35.92548 62.224764-61.96864-35.485476-61.96864 36.365494s97.89413-25.85928 61.96864 36.36549c-35.92548 62.22476-.253-71.409161-62.47776-35.48368-62.22476 35.92549 71.34185 71.84917-.50911 71.84917z" opacity=".544186" transform="matrix(.21090211 .10999635 -.10999635 .21090211 146.78391 600.33752)"/><path d="m689.93421 186.66145c50.16134 51.4789 68.67303-23.36771-2.10668-35.87647-87.1894-15.40882-8.80063-55.512588-32.82322 29.70677-19.50137 69.18044 54.57354 47.78873 30.01659-19.76268-30.25027-83.212644 43.675-35.37786-42.13842-13.57236-69.66271 17.70155-14.09949 71.15645 32.12327 16.1138 56.93913-67.803829 52.47563 20.13473-9.3152-43.27913-50.16134-51.478897-68.67304 23.36771 2.10668 35.87647 87.1894 15.40882 8.80063 55.51259 32.82322-29.70676 19.50136-69.18045-54.57355-47.788742-30.0166 19.76267 30.25028 83.21265-43.67499 35.37786 42.13843 13.57236 69.6627-17.70155 14.09949-71.156446-32.12328-16.1138-56.93913 67.80383-52.47562-20.13472 9.31521 43.27913z" opacity=".544186" transform="matrix(.24067205 0 0 .24067205 -67.165983 684.2193)"/><path d="m667.71084 193.73252c-30.96596 9.42442 22.12139-5.84752-9.40813-13.16871s9.39655 29.78077-14.24821 7.67568c-23.64477-22.1051 16.12479 16.23393 6.70037-14.73203-9.42443-30.96596-21.09263 23.02804-13.77144-8.50148s-5.9966 22.08144 16.10849-1.56333c22.1051-23.64477-30.48918-6.75273.47678-16.17715s-22.12139 5.84751 9.40813 13.1687c31.52952 7.3212-9.39655-29.78077 14.24821-7.67567 23.64477 22.1051-16.12479-16.23393-6.70036 14.73203 9.42442 30.96596 21.09262-23.02804 13.77143 8.50148s5.9966-22.08145-16.10849 1.56332c-22.1051 23.64477 30.48918 6.75273-.47678 16.17716z" opacity=".544186" transform="matrix(.68267246 .43099747 -.43099747 .68267246 300.24653 254.94355)"/><path d="m507.09659 187.67161c-60.58558 50.48799 55.31712-27.19746-22.39552-13.76637s57.54074 47.70919-16.47592 20.48453c-74.01667-27.22466 51.21225 34.30731.72427-26.27827s-12.547 73.68633-25.97809-4.02631c-13.43109-77.712639-4.10487 61.50477 23.11979-12.5119 27.22466-74.016662-70.08774 25.97715-9.50216-24.51083 60.58558-50.487986-55.31713 27.19746 22.39551 13.76637s-57.54074-47.709186 16.47593-20.48453c74.01666 27.22466-51.21225-34.307306-.72427 26.27827 50.48798 60.58558 12.547-73.686333 25.97808 4.02631 13.43109 77.71264 4.10488-61.504767-23.11978 12.5119-27.22466 74.01666 70.08774-25.97715 9.50216 24.51083z" opacity=".544186" transform="matrix(.54977136 0 0 .54977136 135.84284 628.95399)"/><path d="m505.07629 137.16398c49.02415 117.04876 152.62553.58521 29.5359-30.281-199.65461-50.065821 59.45574-142.44159-65.20529 21.35151-76.85512 100.98054 75.80596 132.47019 40.99207 10.43834-56.46903-197.938876 153.0859-19.73061-51.09359-45.793683-125.87928-16.068217-76.81958 131.884983 11.45616 40.719343 143.18558-147.873056 93.63016 122.71098 14.1117-67.145189-49.02416-117.048759-152.62553-.585215-29.53591 30.281002 199.65462 50.065817-59.45574 142.441587 65.20529-21.35151 76.85512-100.980541-75.80595-132.470194-40.99207-10.438342 56.46904 197.938879-153.0859 19.730611 51.0936 45.793679 125.87927 16.06822 76.81957-131.884978-11.45617-40.719343-143.18557 147.873063-93.63016-122.710974-14.11169 67.145193z" opacity=".544186" transform="matrix(.14621796 0 0 .14621796 525.13104 681.54426)"/><path d="m271.73105 254.34168c139.06928 254.94802 297.04967 113.51564 55.1644-47.20234-325.7600142-216.4476201 108.06533-313.54168-95.64043 20.33423-151.256824 247.91153 50.21741 314.01038 68.46063 24.17259 24.56913-390.34025 325.56772-63.18351-65.43017-72.65992-290.326104-7.03648-246.832266 200.49475 13.29623 71.37494 350.32914-173.892635 217.50238 250.35817 30.21025-92.99415-139.06927-254.948022-297.049674-113.515638-55.1644 47.20234 325.76001 216.44762-108.06533 313.54168 95.64043-20.33423 151.25682-247.911532-50.21741-314.01038-68.46063-24.17259-24.56913 390.34025-325.567721 63.18351 65.43017 72.65992 290.3261 7.03648 246.83227-200.494747-13.29623-71.37494-350.329137 173.89263-217.502383-250.358166-30.21025 92.99415z" opacity=".544186" transform="matrix(.17842767 -.10520379 .10520379 .17842767 164.68385 680.73503)"/><path d="m493.96458 122.01169c-109.41064-113.3844131 114.64941 32.49155-33.88305-20.09-50.17933-17.763841-6.9543 61.99018 7.73759 10.82703 43.48846-151.444601 29.18619 115.53508.45692-39.388587-9.70572-52.338495-57.16221 24.972497-5.50768 12.114468 152.8991-38.060187-85.46322 83.043529 34.33998-19.298586 40.4736-34.574654-50.20793-37.017682-13.24528 1.287437 109.41064 113.384418-114.64942-32.491553 33.88305 20.090001 50.17933 17.763837 6.95429-61.990178-7.73759-10.82703-43.48847 151.444597-29.1862-115.53508-.45693 39.388587 9.70573 52.3385 57.16222-24.972496 5.50769-12.11447-152.8991 38.06019 85.46322-83.043524-34.33998 19.29859-40.4736 34.57465 50.20792 37.01768 13.24528-1.28744z" opacity=".544186" transform="matrix(.25814191 0 0 .25814191 450.08287 590.62959)"/><path d="m441.43667 64.432996c-36.0329-52.461096 2.96297-59.2934509-12.49165 2.445444-14.1902 56.68774-14.46739 57.42527 10.70575 4.688432 27.41619-57.435952 52.83112-27.08072-8.36364-9.595362-56.18812 16.054797-56.96544 16.183506 1.29257 11.615667 63.44909-4.974857 49.86815 32.212733 4.12801-12.040806-41.99792-40.632942-42.49805-41.241767-9.41318 6.927234 36.0329 52.461095-2.96296 59.293455 12.49165-2.445444 14.1902-56.6877379 14.46739-57.4252725-10.70575-4.688432-27.41619 57.435951-52.83112 27.080719 8.36364 9.595362 56.18812-16.054797 56.96544-16.183506-1.29257-11.615667-63.44909 4.974857-49.86815-32.212731-4.12801 12.040806 41.99792 40.63294 42.49805 41.24177 9.41318-6.927234z" opacity=".544186" transform="matrix(.76952312 0 0 .76952312 197.4364 720.09263)"/><path d="m420.22347 109.88986c-65.40873 26.933 62.32372-2.43082-7.78841-11.810516-70.11213-9.379699 45.41001 52.527066-10.61902 9.347936-56.02904-43.179121 33.267 52.75852 6.33399-12.650218-26.933-65.408734-22.78476 65.589758-13.40506-4.522372 9.3797-70.11213-29.05671 55.18933 14.12241-.839709 43.17912-56.029036-68.19478 13.062689-2.78604-13.870312 65.40873-26.933006-62.32372 2.430813 7.78841 11.810512s-45.41001-52.527063 10.61902-9.347939c56.02904 43.179128-33.267-52.758515-6.33399 12.65022 26.933 65.408738 22.78476-65.589757 13.40506 4.522373-9.3797 70.112135 29.05671-55.189328-14.12241.839709-43.17912 56.029036 68.19478-13.062694 2.78604 13.870316z" opacity=".544186" transform="matrix(.54815594 0 0 .54815594 -32.010177 765.35825)"/><path d="m246.47721 297.77821c120.90047-26.37261 115.28263 9.56098-3.6887-24.47224-119.51767-34.18952-100.0051-73.19202-16.33303 18.74481 83.28959 91.51657 49.36126 104.61817 19.34924-15.43064-30.14985-120.6001 13.38359-123.20297-24.4-4.77241-37.61088 117.88918-65.92137 95.05719 23.03794 9.04161 89.36782-86.41058 113.3887-50.01095-8.06697-23.51723-120.90047 26.37262-115.28262-9.56097 3.68871 24.47225 119.51767 34.18952 100.0051 73.19202 16.33303-18.74481-83.28959-91.51657-49.36127-104.61817-19.34924 15.43064 30.14985 120.6001-13.3836 123.20297 24.4 4.77241 37.61088-117.88918 65.92136-95.05719-23.03794-9.04161-89.36783 86.41058-113.3887 50.01095 8.06696 23.51722z" opacity=".544186" transform="matrix(.37673122 0 0 .37673122 191.38475 482.42627)"/><path d="m336.38081 265.45334c-45.72243 24.3853 43.17674 2.3831-8.6127.64017s35.42933 26.18637-8.55017-1.21777c-43.97951-27.40414 19.52455 38.5837-4.86075-7.13874-24.3853-45.72243-4.9634 43.77589-3.22047-8.01355s-23.65219 36.20061 3.75195-7.7789c27.40414-43.9795-40.39273 17.58951 5.3297-6.79578 45.72244-24.3853-43.17674-2.38309 8.6127-.64016 51.78944 1.74292-35.42932-26.18638 8.55018 1.21776s-19.52455-38.5837 4.86075 7.13874c24.38529 45.72243 4.9634-43.77589 3.22047 8.01355s23.65218-36.20061-3.75196 7.7789c-27.40413 43.9795 40.39273-17.58951-5.3297 6.79578z" opacity=".544186" transform="matrix(.57606103 0 0 .57606103 301.81355 428.85122)"/><path d="m336.38081 265.45334c-80.86208 31.70071 78.19213-8.71371-8.6127-11.63469-83.81633-2.82042 56.99736 63.37012-8.55017 11.05709-67.88467-54.17826 46.64236 63.35952 5.76959-13.27616-39.46561-73.99729-26.38145 81.04622-13.85081-1.87613 12.97742-85.87897-31.54978 72.07323 14.38229-1.64147 44.35072-71.17686-83.37882 17.67611-5.30064-12.93321 80.86209-31.70071-78.19213 8.71371 8.6127 11.63469 83.81634 2.82042-56.99736-63.37011 8.55018-11.05709 67.88466 54.17827-46.64237-63.35952-5.76959 13.27617 39.46561 73.99728 26.38144-81.04623 13.85081 1.87612-12.97743 85.87897 31.54977-72.07323-14.3823 1.64147-44.35072 71.17686 83.37882-17.67611 5.30064 12.93321z" opacity=".544186" transform="matrix(.79397445 0 0 .79397445 81.449848 427.34027)"/></g></g></svg>